<?xml version="1.0" encoding="utf-8"?><!-- Uploaded to: SVG Repo, www.svgrepo.com, Generator: SVG Repo Mixer Tools -->
<svg width="800px" height="800px" viewBox="0 0 128 128" fill="none" xmlns="http://www.w3.org/2000/svg">
<path fill-rule="evenodd" clip-rule="evenodd" d="M92 21.5C96.1421 21.5 99.5 24.8579 99.5 29L99.5 113C99.5 117.142 96.1421 120.5 92 120.5L74 120.5C73.7239 120.5 73.5 120.276 73.5 120C73.5 119.724 73.7239 119.5 74 119.5L92 119.5C95.5898 119.5 98.5 116.59 98.5 113L98.5 29C98.5 25.4102 95.5899 22.5 92 22.5L82 22.5C81.7239 22.5 81.5 22.2761 81.5 22C81.5 21.7239 81.7239 21.5 82 21.5L92 21.5Z" fill="#051DF1"/>
<path fill-rule="evenodd" clip-rule="evenodd" d="M92 23.5C95.0376 23.5 97.5 25.9624 97.5 29L97.5 113C97.5 116.038 95.0376 118.5 92 118.5L80 118.5C79.7239 118.5 79.5 118.276 79.5 118C79.5 117.724 79.7239 117.5 80 117.5L92 117.5C94.4853 117.5 96.5 115.485 96.5 113L96.5 29C96.5 26.5147 94.4853 24.5 92 24.5L82 24.5C81.7239 24.5 81.5 24.2761 81.5 24C81.5 23.7239 81.7239 23.5 82 23.5L92 23.5Z" fill="#051DF1"/>
<path fill-rule="evenodd" clip-rule="evenodd" d="M81.5 24C81.5 23.7239 81.7239 23.5 82 23.5H88V24H88.5C88.5 26.4853 86.4853 28.5 84 28.5H82C81.7239 28.5 81.5 28.2761 81.5 28V24ZM87.4646 24.5H82.5V27.5H84C85.7632 27.5 87.2219 26.1961 87.4646 24.5Z" fill="#051DF1"/>
<path fill-rule="evenodd" clip-rule="evenodd" d="M75 7.5C79.1421 7.5 82.5 10.8579 82.5 15L82.5 113C82.5 117.142 79.1421 120.5 75 120.5L35 120.5C30.8579 120.5 27.5 117.142 27.5 113L27.5 15C27.5 10.8579 30.8579 7.5 35 7.5L75 7.5ZM81.5 15C81.5 11.4101 78.5899 8.5 75 8.5L35 8.5C31.4101 8.5 28.5 11.4101 28.5 15L28.5 113C28.5 116.59 31.4101 119.5 35 119.5L75 119.5C78.5898 119.5 81.5 116.59 81.5 113L81.5 15Z" fill="#051DF1"/>
<path fill-rule="evenodd" clip-rule="evenodd" d="M75 9.5C78.0376 9.5 80.5 11.9624 80.5 15L80.5 113C80.5 116.038 78.0376 118.5 75 118.5L35 118.5C31.9624 118.5 29.5 116.038 29.5 113L29.5 15C29.5 11.9624 31.9624 9.5 35 9.5L75 9.5ZM79.5 15C79.5 12.5147 77.4853 10.5 75 10.5L35 10.5C32.5147 10.5 30.5 12.5147 30.5 15L30.5 113C30.5 115.485 32.5147 117.5 35 117.5L75 117.5C77.4853 117.5 79.5 115.485 79.5 113L79.5 15Z" fill="#051DF1"/>
<path fill-rule="evenodd" clip-rule="evenodd" d="M40.5 10C40.5 9.72386 40.7239 9.5 41 9.5H71V10H71.5C71.5 13.0376 69.0376 15.5 66 15.5H46C42.9624 15.5 40.5 13.0376 40.5 10ZM41.5275 10.5C41.7762 12.75 43.6837 14.5 46 14.5H66C68.3163 14.5 70.2238 12.75 70.4725 10.5H41.5275Z" fill="#051DF1"/>
</svg>