<svg width="21" height="18" viewBox="0 0 21 18" fill="none" xmlns="http://www.w3.org/2000/svg">
<path d="M6.90625 12.8203V3.11719C6.90625 2.64844 6.85938 2.3125 6.76562 2.10938C6.67188 1.89062 6.50781 1.75781 6.27344 1.71094C6.02344 1.66406 5.79688 1.60156 5.59375 1.52344C5.39062 1.44531 5.28906 1.29688 5.28906 1.07812C5.28906 0.71875 5.52344 0.539062 5.99219 0.539062H8.17188C8.6875 0.539062 8.94531 0.789062 8.94531 1.28906V12.8672C8.94531 14.5078 8.5625 15.6875 7.79688 16.4062C7.04688 17.125 6.0625 17.4844 4.84375 17.4844C3.54688 17.4844 2.54688 17.2109 1.84375 16.6641C1.15625 16.1172 0.8125 15.2812 0.8125 14.1562H2.875C2.89062 14.8281 3.07031 15.3047 3.41406 15.5859C3.75781 15.8516 4.22656 15.9844 4.82031 15.9844C5.46094 15.9844 5.96875 15.75 6.34375 15.2812C6.71875 14.7969 6.90625 13.9766 6.90625 12.8203ZM18.5078 12.7031C18.4609 12.0156 18.1719 11.4062 17.6406 10.875C17.1094 10.3438 16.2812 9.78125 15.1562 9.1875C13.9219 8.5625 12.9688 7.85938 12.2969 7.07812C11.6406 6.28125 11.3281 5.30469 11.3594 4.14844C11.3906 3.00781 11.8203 2.07031 12.6484 1.33594C13.4922 0.601562 14.6094 0.234375 16 0.234375C16.7969 0.234375 17.4609 0.289062 17.9922 0.398438C18.5234 0.492188 19.0938 0.625 19.7031 0.796875V2.67188C19.0625 2.40625 18.4297 2.1875 17.8047 2.01562C17.1953 1.84375 16.5938 1.75781 16 1.75781C15.3281 1.75781 14.7344 1.98438 14.2188 2.4375C13.7188 2.875 13.4688 3.47656 13.4688 4.24219C13.4688 4.94531 13.7578 5.57031 14.3359 6.11719C14.9141 6.64844 15.8047 7.23438 17.0078 7.875C18.2266 8.53125 19.1328 9.25 19.7266 10.0312C20.3359 10.8125 20.6406 11.7188 20.6406 12.75C20.6406 14.0469 20.1953 15.1484 19.3047 16.0547C18.4141 16.9453 17.1406 17.4297 15.4844 17.5078C14.875 17.5391 14.2188 17.4844 13.5156 17.3438C12.8281 17.2031 12.2656 16.9922 11.8281 16.7109C11.5625 16.5391 11.3672 16.3516 11.2422 16.1484C11.1172 15.9453 11.1172 15.7109 11.2422 15.4453C11.3516 15.1953 11.5391 15.0312 11.8047 14.9531C12.0703 14.875 12.3281 14.9219 12.5781 15.0938C12.9062 15.2969 13.3516 15.4766 13.9141 15.6328C14.4922 15.7734 15.0312 15.8281 15.5312 15.7969C16.5781 15.7344 17.3516 15.4141 17.8516 14.8359C18.3516 14.2578 18.5703 13.5469 18.5078 12.7031Z" fill="#021BFF"/>
</svg>
